<svg width="32" height="32" viewBox="0 0 32 32" fill="none" xmlns="http://www.w3.org/2000/svg">
<g clip-path="url(#clip0_11_3)">
<rect width="32" height="32" fill="white"/>
<path d="M32 32.1387C32 32.2924 31.8754 32.417 31.7217 32.417H0.278261C0.124582 32.417 0 32.2924 0 32.1387V29.9519C0 29.821 0.0913143 29.7077 0.219298 29.68L22.3405 24.8837C22.5139 24.8461 22.6777 24.9782 22.6777 25.1556V30.0518C22.6777 30.2055 22.8023 30.3301 22.956 30.3301H23.3461C23.4487 30.3301 23.5429 30.2736 23.5914 30.1832L26.9081 23.9931C26.9466 23.9213 27.0147 23.8699 27.0943 23.8526L31.6627 22.8613C31.8361 22.8236 32 22.9558 32 23.1332V32.1387ZM32 20.2854C32 20.4164 31.9087 20.5296 31.7808 20.5573L26.7825 21.642C26.6985 21.6602 26.6109 21.6386 26.5449 21.5835L21.0003 16.9437C20.9199 16.8764 20.8084 16.8601 20.712 16.9015L20.1524 17.1417C20.0107 17.2025 19.9455 17.3669 20.007 17.5083L22.0982 22.3179C22.1681 22.4788 22.0735 22.6636 21.9019 22.7008L0.337221 27.3761C0.163822 27.4137 0 27.2816 0 27.1042V12.0828C0 11.9518 0.0913037 11.8386 0.219278 11.8108L5.63447 10.6363C5.71845 10.6181 5.80613 10.6397 5.87203 10.6948L11.4167 15.3346C11.4971 15.4019 11.6086 15.4182 11.705 15.3769L12.2646 15.1366C12.4063 15.0758 12.4715 14.9114 12.41 14.77L10.3188 9.96044C10.2488 9.79949 10.3435 9.61474 10.515 9.57755L31.6628 4.99207C31.8362 4.95447 32 5.08658 32 5.26401V20.2854ZM32 2.41624C32 2.54719 31.9087 2.66043 31.7807 2.68818L10.0765 7.39465C9.90309 7.43225 9.73926 7.30014 9.73926 7.12271V2.2265C9.73926 2.07282 9.61468 1.94824 9.461 1.94824H9.07089C8.96832 1.94824 8.87406 2.00467 8.82562 2.09508L5.50894 8.28516C5.47043 8.35703 5.40233 8.40839 5.32265 8.42568L0.33724 9.50694C0.163836 9.54454 0 9.41243 0 9.235V0.278261C0 0.124582 0.124582 0 0.278261 0H31.7217C31.8754 0 32 0.124582 32 0.278261V2.41624Z" fill="#12BBF0"/>
</g>
<defs>
<clipPath id="clip0_11_3">
<rect width="32" height="32" fill="white"/>
</clipPath>
</defs>
</svg>
