<svg width="356" height="143" viewBox="0 0 356 143" fill="none" xmlns="http://www.w3.org/2000/svg">
  <path d="M0 141.556V130.512L34.4467 13.4105H2.01596V1.31477H48.9967V12.534L13.6735 129.46H45.9289V141.556H0Z" fill="black"/>
  <path d="M61.0883 141.556V1.31477H83.3516C91.9998 1.31477 98.2814 3.18465 102.196 6.9244C106.17 10.6642 108.215 16.8289 108.332 25.4187C108.39 30.7361 108.42 35.4108 108.42 39.4428C108.42 43.4747 108.361 47.3605 108.244 51.1003C108.011 56.1256 107.017 60.0991 105.264 63.0208C103.511 65.884 100.794 67.9876 97.1127 69.3316V72.6623C100.911 73.9479 103.716 76.0515 105.527 78.9732C107.339 81.8948 108.303 85.9268 108.42 91.0689C108.537 95.8021 108.595 100.185 108.595 104.217C108.595 108.248 108.537 112.66 108.42 117.452C108.127 125.983 106.024 132.148 102.109 135.946C98.2522 139.686 92.029 141.556 83.4392 141.556H61.0883ZM74.4989 129.46H83.4392C87.2958 129.46 90.1591 128.467 92.029 126.48C93.8989 124.493 94.863 121.425 94.9214 117.276C95.0967 112.719 95.1844 108.424 95.1844 104.392C95.1844 100.36 95.0967 96.0942 94.9214 91.5948C94.863 86.2774 93.8696 82.5084 91.9413 80.2879C90.0715 78.009 87.0329 76.8695 82.8257 76.8695H74.4989V129.46ZM74.4989 64.7738H83.2639C87.1205 64.7738 89.9838 63.6343 91.8537 61.3554C93.7236 59.0765 94.7169 55.5412 94.8338 50.7497C95.0091 46.1919 95.0967 41.8678 95.0967 37.7774C95.0967 33.687 95.0091 29.3629 94.8338 24.8051C94.7169 20.8901 93.7236 18.0268 91.8537 16.2154C89.9838 14.3455 87.1498 13.4105 83.3516 13.4105H74.4989V64.7738Z" fill="black"/>
  <path d="M124.601 141.556V1.31477H147.478C156.067 1.31477 162.29 3.18465 166.147 6.9244C170.004 10.6642 172.107 16.8289 172.458 25.4187C172.633 30.3855 172.75 35.0602 172.809 39.4428C172.867 43.8253 172.867 48.0909 172.809 52.2397C172.75 56.3301 172.633 60.4497 172.458 64.5985C172.224 70.5003 171.172 75.2334 169.303 78.7979C167.433 82.3623 164.54 84.9334 160.625 86.5111L175.087 141.556H160.713L147.74 88.79H138.011V141.556H124.601ZM138.011 76.6943H147.39C151.305 76.6943 154.168 75.7593 155.98 73.8894C157.791 72.0195 158.784 69.1271 158.96 65.212C159.135 60.8295 159.252 56.3593 159.31 51.8015C159.369 47.2437 159.369 42.715 159.31 38.2157C159.252 33.6578 159.135 29.1876 158.96 24.8051C158.784 20.8901 157.791 18.0268 155.98 16.2154C154.227 14.3455 151.393 13.4105 147.478 13.4105H138.011V76.6943Z" fill="black"/>
  <path d="M212.559 142.87C203.794 142.87 197.484 141.001 193.627 137.261C189.829 133.463 187.842 127.21 187.667 118.504C187.55 110.44 187.433 102.522 187.316 94.7503C187.258 86.9786 187.228 79.2069 187.228 71.4352C187.228 63.6635 187.258 55.8918 187.316 48.1202C187.433 40.3485 187.55 32.4307 187.667 24.3669C187.842 15.6602 189.829 9.43705 193.627 5.69729C197.484 1.8991 203.794 0 212.559 0C221.266 0 227.518 1.8991 231.317 5.69729C235.173 9.43705 237.16 15.6602 237.277 24.3669C237.452 32.4307 237.569 40.3777 237.628 48.2078C237.744 56.0379 237.803 63.8096 237.803 71.5229C237.803 79.2361 237.744 86.9786 237.628 94.7503C237.569 102.522 237.452 110.44 237.277 118.504C237.16 127.21 235.173 133.463 231.317 137.261C227.518 141.001 221.266 142.87 212.559 142.87ZM212.559 131.476C216.533 131.476 219.396 130.658 221.149 129.022C222.902 127.327 223.808 124.551 223.866 120.695C224.1 112.397 224.246 104.129 224.305 95.8897C224.421 87.5921 224.48 79.3238 224.48 71.0846C224.48 62.8455 224.421 54.6647 224.305 46.5424C224.188 38.3617 224.042 30.2394 223.866 22.1756C223.808 18.319 222.873 15.5434 221.062 13.8488C219.309 12.1542 216.475 11.3069 212.559 11.3069C208.644 11.3069 205.781 12.1542 203.97 13.8488C202.217 15.5434 201.282 18.319 201.165 22.1756C200.931 30.2394 200.756 38.3617 200.639 46.5424C200.522 54.6647 200.464 62.8455 200.464 71.0846C200.522 79.3238 200.61 87.5921 200.727 95.8897C200.843 104.129 200.99 112.397 201.165 120.695C201.282 124.551 202.217 127.327 203.97 129.022C205.781 130.658 208.644 131.476 212.559 131.476Z" fill="black"/>
  <path d="M265.913 141.556V105.005L245.928 1.31477H259.689L266.614 40.144L271.084 80.4632H274.415L278.71 40.144L285.634 1.31477H299.57L279.411 105.181V141.556H265.913Z" fill="black"/>
  <path d="M300.117 141.556L315.631 1.31477H339.823L355.337 141.556H341.576L337.982 102.288H317.472L313.878 141.556H300.117ZM318.786 90.1924H336.755L333.95 59.5147L330.269 13.4105H325.36L321.679 59.5147L318.786 90.1924Z" fill="black"/>
</svg>
