<svg width="137" height="139" viewBox="0 0 137 139" fill="none" xmlns="http://www.w3.org/2000/svg">
<path d="M137 137.596C137 138.254 136.467 138.787 135.809 138.787H1.1913C0.533358 138.787 0 138.254 0 137.596V128.232C0 127.671 0.390919 127.187 0.938832 127.068L95.647 106.53C96.3894 106.369 97.0908 106.934 97.0908 107.694V128.661C97.0908 129.319 97.6242 129.853 98.2821 129.853H99.9518C100.391 129.853 100.794 129.611 101.002 129.224L115.202 102.717C115.367 102.41 115.658 102.19 116 102.116L135.556 97.8737C136.299 97.7127 137 98.2783 137 99.038V137.596ZM137 86.848C137 87.4086 136.609 87.8934 136.061 88.0122L114.66 92.6538C114.3 92.7317 113.925 92.6392 113.643 92.4032L89.9089 72.5438C89.5646 72.2557 89.0877 72.1856 88.6751 72.3625L86.2785 73.3896C85.6715 73.6497 85.392 74.354 85.6553 74.9596L94.6065 95.5454C94.9062 96.2345 94.5008 97.0254 93.7665 97.1847L1.44378 117.205C0.701395 117.366 0 116.801 0 116.041V51.7302C0 51.1695 0.39092 50.6848 0.938834 50.5659L24.1265 45.5376C24.486 45.4597 24.8613 45.5522 25.1434 45.7882L48.8773 65.6476C49.2215 65.9357 49.6985 66.0058 50.1111 65.8289L52.5077 64.8018C53.1147 64.5417 53.3942 63.8375 53.1309 63.2318L44.1805 42.645C43.8809 41.9559 44.2862 41.165 45.0205 41.0058L135.556 21.3717C136.299 21.2107 137 21.7763 137 22.5359V86.848ZM137 10.346C137 10.9066 136.609 11.3914 136.061 11.5102L43.1391 31.6615C42.3967 31.8225 41.6953 31.2569 41.6953 30.4973V9.53017C41.6953 8.87223 41.1619 8.33887 40.504 8.33887H38.8344C38.3952 8.33887 37.9916 8.58049 37.7843 8.9676L23.5841 35.4739C23.4192 35.7817 23.1276 36.0016 22.7865 36.0756L1.44381 40.7044C0.70142 40.8655 0 40.2999 0 39.5402V1.1913C0 0.533364 0.533365 0 1.1913 0H135.809C136.467 0 137 0.533365 137 1.1913V10.346Z" fill="black"/>
</svg>
